<mxfile host="app.diagrams.net" agent="Mozilla/5.0 (Windows NT 10.0; Win64; x64) AppleWebKit/537.36 (KHTML, like Gecko) Chrome/133.0.0.0 Safari/537.36 OPR/118.0.0.0" version="26.2.14">
  <diagram name="Page-1" id="ZZrZnOVVyGvHQg5XJtf8">
    <mxGraphModel dx="1639" dy="1520" grid="1" gridSize="10" guides="1" tooltips="1" connect="1" arrows="1" fold="1" page="1" pageScale="1" pageWidth="850" pageHeight="1100" math="0" shadow="0">
      <root>
        <mxCell id="0" />
        <mxCell id="1" parent="0" />
        <mxCell id="o1MzAIX67n9RTOHfI_H--221" value="" style="edgeStyle=orthogonalEdgeStyle;rounded=0;orthogonalLoop=1;jettySize=auto;html=1;" parent="1" source="o1MzAIX67n9RTOHfI_H--1" target="o1MzAIX67n9RTOHfI_H--4" edge="1">
          <mxGeometry relative="1" as="geometry" />
        </mxCell>
        <mxCell id="o1MzAIX67n9RTOHfI_H--1" value="&lt;font style=&quot;font-size: 23px;&quot;&gt;START&lt;/font&gt;" style="ellipse;whiteSpace=wrap;html=1;" parent="1" vertex="1">
          <mxGeometry x="352.5" y="-210" width="192.5" height="117.5" as="geometry" />
        </mxCell>
        <mxCell id="o1MzAIX67n9RTOHfI_H--12" style="edgeStyle=orthogonalEdgeStyle;rounded=0;orthogonalLoop=1;jettySize=auto;html=1;exitX=1;exitY=0.5;exitDx=0;exitDy=0;entryX=0;entryY=0.5;entryDx=0;entryDy=0;" parent="1" source="o1MzAIX67n9RTOHfI_H--4" target="o1MzAIX67n9RTOHfI_H--6" edge="1">
          <mxGeometry relative="1" as="geometry" />
        </mxCell>
        <mxCell id="o1MzAIX67n9RTOHfI_H--196" style="edgeStyle=orthogonalEdgeStyle;rounded=0;orthogonalLoop=1;jettySize=auto;html=1;exitX=1;exitY=0.75;exitDx=0;exitDy=0;entryX=0.5;entryY=0;entryDx=0;entryDy=0;" parent="1" source="o1MzAIX67n9RTOHfI_H--4" target="o1MzAIX67n9RTOHfI_H--194" edge="1">
          <mxGeometry relative="1" as="geometry" />
        </mxCell>
        <mxCell id="o1MzAIX67n9RTOHfI_H--4" value="&lt;font style=&quot;color: light-dark(rgb(0, 0, 0), rgb(0, 255, 241));&quot;&gt;Show Main Menu&lt;/font&gt;" style="rounded=0;whiteSpace=wrap;html=1;" parent="1" vertex="1">
          <mxGeometry x="290" y="-30" width="317.5" height="77.5" as="geometry" />
        </mxCell>
        <mxCell id="o1MzAIX67n9RTOHfI_H--5" value="&lt;font style=&quot;color: light-dark(rgb(0, 0, 0), rgb(0, 255, 241));&quot;&gt;Register New User&lt;/font&gt;" style="rounded=0;whiteSpace=wrap;html=1;" parent="1" vertex="1">
          <mxGeometry x="40" y="110" width="110" height="40" as="geometry" />
        </mxCell>
        <mxCell id="o1MzAIX67n9RTOHfI_H--217" value="" style="edgeStyle=orthogonalEdgeStyle;rounded=0;orthogonalLoop=1;jettySize=auto;html=1;" parent="1" source="o1MzAIX67n9RTOHfI_H--6" target="o1MzAIX67n9RTOHfI_H--216" edge="1">
          <mxGeometry relative="1" as="geometry" />
        </mxCell>
        <mxCell id="o1MzAIX67n9RTOHfI_H--6" value="&lt;font style=&quot;color: light-dark(rgb(0, 0, 0), rgb(0, 255, 241));&quot;&gt;Exit Program&lt;/font&gt;" style="rounded=0;whiteSpace=wrap;html=1;" parent="1" vertex="1">
          <mxGeometry x="860" y="-8.75" width="110" height="35" as="geometry" />
        </mxCell>
        <mxCell id="o1MzAIX67n9RTOHfI_H--51" style="edgeStyle=orthogonalEdgeStyle;rounded=0;orthogonalLoop=1;jettySize=auto;html=1;entryX=0.5;entryY=0;entryDx=0;entryDy=0;" parent="1" source="o1MzAIX67n9RTOHfI_H--7" target="o1MzAIX67n9RTOHfI_H--50" edge="1">
          <mxGeometry relative="1" as="geometry" />
        </mxCell>
        <mxCell id="o1MzAIX67n9RTOHfI_H--7" value="&lt;font style=&quot;color: light-dark(rgb(0, 0, 0), rgb(0, 255, 241));&quot;&gt;Login&lt;/font&gt;" style="rounded=0;whiteSpace=wrap;html=1;" parent="1" vertex="1">
          <mxGeometry x="530" y="110" width="110" height="35" as="geometry" />
        </mxCell>
        <mxCell id="o1MzAIX67n9RTOHfI_H--10" value="" style="endArrow=classic;html=1;rounded=0;entryX=0.5;entryY=0;entryDx=0;entryDy=0;" parent="1" source="o1MzAIX67n9RTOHfI_H--4" target="o1MzAIX67n9RTOHfI_H--5" edge="1">
          <mxGeometry width="50" height="50" relative="1" as="geometry">
            <mxPoint x="300" as="sourcePoint" />
            <mxPoint x="60" y="89" as="targetPoint" />
            <Array as="points">
              <mxPoint x="120" y="70" />
            </Array>
          </mxGeometry>
        </mxCell>
        <mxCell id="o1MzAIX67n9RTOHfI_H--11" value="" style="endArrow=classic;html=1;rounded=0;entryX=0.5;entryY=0;entryDx=0;entryDy=0;exitX=0.691;exitY=1.022;exitDx=0;exitDy=0;exitPerimeter=0;" parent="1" target="o1MzAIX67n9RTOHfI_H--7" edge="1" source="o1MzAIX67n9RTOHfI_H--4">
          <mxGeometry width="50" height="50" relative="1" as="geometry">
            <mxPoint x="210" y="50" as="sourcePoint" />
            <mxPoint x="170" y="50" as="targetPoint" />
            <Array as="points">
              <mxPoint x="510" y="70" />
              <mxPoint x="510" y="80" />
              <mxPoint x="570" y="80" />
            </Array>
          </mxGeometry>
        </mxCell>
        <mxCell id="o1MzAIX67n9RTOHfI_H--21" style="edgeStyle=orthogonalEdgeStyle;rounded=0;orthogonalLoop=1;jettySize=auto;html=1;exitX=0.25;exitY=1;exitDx=0;exitDy=0;entryX=0.5;entryY=0;entryDx=0;entryDy=0;" parent="1" source="o1MzAIX67n9RTOHfI_H--13" target="o1MzAIX67n9RTOHfI_H--16" edge="1">
          <mxGeometry relative="1" as="geometry" />
        </mxCell>
        <mxCell id="o1MzAIX67n9RTOHfI_H--13" value="User&#39;s IC" style="shape=parallelogram;perimeter=parallelogramPerimeter;whiteSpace=wrap;html=1;fixedSize=1;" parent="1" vertex="1">
          <mxGeometry x="20" y="180" width="150" height="30" as="geometry" />
        </mxCell>
        <mxCell id="o1MzAIX67n9RTOHfI_H--15" value="" style="endArrow=classic;html=1;rounded=0;exitX=0.5;exitY=1;exitDx=0;exitDy=0;entryX=0.5;entryY=0;entryDx=0;entryDy=0;" parent="1" source="o1MzAIX67n9RTOHfI_H--5" target="o1MzAIX67n9RTOHfI_H--13" edge="1">
          <mxGeometry width="50" height="50" relative="1" as="geometry">
            <mxPoint x="80" y="200" as="sourcePoint" />
            <mxPoint x="130" y="150" as="targetPoint" />
          </mxGeometry>
        </mxCell>
        <mxCell id="o1MzAIX67n9RTOHfI_H--19" style="edgeStyle=orthogonalEdgeStyle;rounded=0;orthogonalLoop=1;jettySize=auto;html=1;exitX=1;exitY=0.5;exitDx=0;exitDy=0;" parent="1" source="o1MzAIX67n9RTOHfI_H--16" target="o1MzAIX67n9RTOHfI_H--18" edge="1">
          <mxGeometry relative="1" as="geometry" />
        </mxCell>
        <mxCell id="o1MzAIX67n9RTOHfI_H--20" style="edgeStyle=orthogonalEdgeStyle;rounded=0;orthogonalLoop=1;jettySize=auto;html=1;exitX=0.5;exitY=1;exitDx=0;exitDy=0;entryX=0.5;entryY=0;entryDx=0;entryDy=0;" parent="1" source="o1MzAIX67n9RTOHfI_H--16" target="o1MzAIX67n9RTOHfI_H--17" edge="1">
          <mxGeometry relative="1" as="geometry" />
        </mxCell>
        <mxCell id="o1MzAIX67n9RTOHfI_H--16" value="&lt;font style=&quot;font-size: 10px;&quot;&gt;IC Exist&amp;nbsp;&lt;/font&gt;&lt;div&gt;&lt;font style=&quot;font-size: 10px;&quot;&gt;in CSV&lt;/font&gt;&lt;/div&gt;" style="rhombus;whiteSpace=wrap;html=1;" parent="1" vertex="1">
          <mxGeometry x="17.5" y="240" width="65" height="60" as="geometry" />
        </mxCell>
        <mxCell id="o1MzAIX67n9RTOHfI_H--37" style="edgeStyle=orthogonalEdgeStyle;rounded=0;orthogonalLoop=1;jettySize=auto;html=1;exitX=1;exitY=0.5;exitDx=0;exitDy=0;entryX=0;entryY=0.5;entryDx=0;entryDy=0;" parent="1" source="o1MzAIX67n9RTOHfI_H--17" target="o1MzAIX67n9RTOHfI_H--35" edge="1">
          <mxGeometry relative="1" as="geometry" />
        </mxCell>
        <mxCell id="o1MzAIX67n9RTOHfI_H--17" value="&lt;font style=&quot;font-size: 10px;&quot;&gt;IC Valid&lt;/font&gt;" style="rhombus;whiteSpace=wrap;html=1;" parent="1" vertex="1">
          <mxGeometry x="17.5" y="330" width="65" height="60" as="geometry" />
        </mxCell>
        <mxCell id="o1MzAIX67n9RTOHfI_H--18" value="&quot;IC Registered&quot;" style="shape=parallelogram;perimeter=parallelogramPerimeter;whiteSpace=wrap;html=1;fixedSize=1;" parent="1" vertex="1">
          <mxGeometry x="120" y="257.5" width="150" height="25" as="geometry" />
        </mxCell>
        <mxCell id="o1MzAIX67n9RTOHfI_H--25" value="" style="edgeStyle=none;orthogonalLoop=1;jettySize=auto;html=1;rounded=0;exitX=0.5;exitY=0;exitDx=0;exitDy=0;entryX=0.3;entryY=1.025;entryDx=0;entryDy=0;entryPerimeter=0;" parent="1" source="o1MzAIX67n9RTOHfI_H--18" target="o1MzAIX67n9RTOHfI_H--4" edge="1">
          <mxGeometry width="100" relative="1" as="geometry">
            <mxPoint x="170" y="230" as="sourcePoint" />
            <mxPoint x="270" y="230" as="targetPoint" />
            <Array as="points" />
          </mxGeometry>
        </mxCell>
        <mxCell id="o1MzAIX67n9RTOHfI_H--36" style="edgeStyle=orthogonalEdgeStyle;rounded=0;orthogonalLoop=1;jettySize=auto;html=1;exitX=0.75;exitY=0;exitDx=0;exitDy=0;" parent="1" source="o1MzAIX67n9RTOHfI_H--35" target="o1MzAIX67n9RTOHfI_H--4" edge="1">
          <mxGeometry relative="1" as="geometry">
            <Array as="points">
              <mxPoint x="223" y="338" />
              <mxPoint x="200" y="338" />
              <mxPoint x="200" y="290" />
              <mxPoint x="280" y="290" />
              <mxPoint x="280" y="240" />
              <mxPoint x="200" y="240" />
            </Array>
          </mxGeometry>
        </mxCell>
        <mxCell id="o1MzAIX67n9RTOHfI_H--35" value="&quot;Invalid IC&quot;" style="shape=parallelogram;perimeter=parallelogramPerimeter;whiteSpace=wrap;html=1;fixedSize=1;" parent="1" vertex="1">
          <mxGeometry x="110" y="330" width="150" height="25" as="geometry" />
        </mxCell>
        <mxCell id="o1MzAIX67n9RTOHfI_H--39" value="Generate Password" style="rounded=0;whiteSpace=wrap;html=1;" parent="1" vertex="1">
          <mxGeometry x="10" y="430" width="110" height="40" as="geometry" />
        </mxCell>
        <mxCell id="o1MzAIX67n9RTOHfI_H--40" style="edgeStyle=orthogonalEdgeStyle;rounded=0;orthogonalLoop=1;jettySize=auto;html=1;exitX=0.5;exitY=1;exitDx=0;exitDy=0;entryX=0.361;entryY=0.033;entryDx=0;entryDy=0;entryPerimeter=0;" parent="1" source="o1MzAIX67n9RTOHfI_H--17" target="o1MzAIX67n9RTOHfI_H--39" edge="1">
          <mxGeometry relative="1" as="geometry" />
        </mxCell>
        <mxCell id="69m1BiPVyUGvL0sLN5Fm-15" style="edgeStyle=orthogonalEdgeStyle;rounded=0;orthogonalLoop=1;jettySize=auto;html=1;entryX=0.306;entryY=0.006;entryDx=0;entryDy=0;entryPerimeter=0;" edge="1" parent="1" source="o1MzAIX67n9RTOHfI_H--41" target="69m1BiPVyUGvL0sLN5Fm-14">
          <mxGeometry relative="1" as="geometry">
            <mxPoint x="65" y="930" as="targetPoint" />
          </mxGeometry>
        </mxCell>
        <mxCell id="o1MzAIX67n9RTOHfI_H--41" value="Update User Detail&lt;span style=&quot;background-color: transparent; color: light-dark(rgb(0, 0, 0), rgb(255, 255, 255));&quot;&gt;&amp;nbsp;to CSV&lt;/span&gt;" style="rounded=0;whiteSpace=wrap;html=1;" parent="1" vertex="1">
          <mxGeometry x="10" y="580" width="110" height="40" as="geometry" />
        </mxCell>
        <mxCell id="o1MzAIX67n9RTOHfI_H--43" value="" style="endArrow=classic;html=1;rounded=0;entryX=0.313;entryY=-0.006;entryDx=0;entryDy=0;entryPerimeter=0;exitX=0.35;exitY=1;exitDx=0;exitDy=0;exitPerimeter=0;" parent="1" source="o1MzAIX67n9RTOHfI_H--39" target="o1MzAIX67n9RTOHfI_H--41" edge="1">
          <mxGeometry width="50" height="50" relative="1" as="geometry">
            <mxPoint x="360" y="480" as="sourcePoint" />
            <mxPoint x="410" y="430" as="targetPoint" />
          </mxGeometry>
        </mxCell>
        <mxCell id="o1MzAIX67n9RTOHfI_H--49" style="edgeStyle=orthogonalEdgeStyle;rounded=0;orthogonalLoop=1;jettySize=auto;html=1;exitX=0.5;exitY=0;exitDx=0;exitDy=0;entryX=-0.001;entryY=0.158;entryDx=0;entryDy=0;entryPerimeter=0;" parent="1" source="o1MzAIX67n9RTOHfI_H--44" target="o1MzAIX67n9RTOHfI_H--4" edge="1">
          <mxGeometry relative="1" as="geometry">
            <mxPoint x="250" y="-130" as="targetPoint" />
            <Array as="points">
              <mxPoint x="215" y="427" />
              <mxPoint x="180" y="427" />
              <mxPoint x="180" y="370" />
              <mxPoint x="280" y="370" />
              <mxPoint x="280" y="240" />
              <mxPoint x="205" y="240" />
              <mxPoint x="205" y="-18" />
              <mxPoint x="230" y="-18" />
            </Array>
          </mxGeometry>
        </mxCell>
        <mxCell id="o1MzAIX67n9RTOHfI_H--44" value="&quot;Last 4 digits of IC&quot;" style="shape=parallelogram;perimeter=parallelogramPerimeter;whiteSpace=wrap;html=1;fixedSize=1;" parent="1" vertex="1">
          <mxGeometry x="140" y="437.5" width="150" height="25" as="geometry" />
        </mxCell>
        <mxCell id="o1MzAIX67n9RTOHfI_H--48" style="edgeStyle=orthogonalEdgeStyle;rounded=0;orthogonalLoop=1;jettySize=auto;html=1;exitX=1;exitY=0.5;exitDx=0;exitDy=0;entryX=0.041;entryY=0.527;entryDx=0;entryDy=0;entryPerimeter=0;" parent="1" source="o1MzAIX67n9RTOHfI_H--39" target="o1MzAIX67n9RTOHfI_H--44" edge="1">
          <mxGeometry relative="1" as="geometry" />
        </mxCell>
        <mxCell id="o1MzAIX67n9RTOHfI_H--55" style="edgeStyle=orthogonalEdgeStyle;rounded=0;orthogonalLoop=1;jettySize=auto;html=1;" parent="1" source="o1MzAIX67n9RTOHfI_H--50" edge="1">
          <mxGeometry relative="1" as="geometry">
            <mxPoint x="585" y="220" as="targetPoint" />
          </mxGeometry>
        </mxCell>
        <mxCell id="o1MzAIX67n9RTOHfI_H--50" value="IC Number" style="shape=parallelogram;perimeter=parallelogramPerimeter;whiteSpace=wrap;html=1;fixedSize=1;" parent="1" vertex="1">
          <mxGeometry x="510" y="172.5" width="150" height="25" as="geometry" />
        </mxCell>
        <mxCell id="o1MzAIX67n9RTOHfI_H--58" style="edgeStyle=orthogonalEdgeStyle;rounded=0;orthogonalLoop=1;jettySize=auto;html=1;entryX=0.5;entryY=0;entryDx=0;entryDy=0;" parent="1" source="o1MzAIX67n9RTOHfI_H--52" target="o1MzAIX67n9RTOHfI_H--56" edge="1">
          <mxGeometry relative="1" as="geometry" />
        </mxCell>
        <mxCell id="o1MzAIX67n9RTOHfI_H--52" value="Password" style="shape=parallelogram;perimeter=parallelogramPerimeter;whiteSpace=wrap;html=1;fixedSize=1;" parent="1" vertex="1">
          <mxGeometry x="510" y="222.5" width="150" height="25" as="geometry" />
        </mxCell>
        <mxCell id="o1MzAIX67n9RTOHfI_H--59" style="edgeStyle=orthogonalEdgeStyle;rounded=0;orthogonalLoop=1;jettySize=auto;html=1;" parent="1" source="o1MzAIX67n9RTOHfI_H--56" edge="1">
          <mxGeometry relative="1" as="geometry">
            <mxPoint x="500" y="315" as="targetPoint" />
          </mxGeometry>
        </mxCell>
        <mxCell id="o1MzAIX67n9RTOHfI_H--68" style="edgeStyle=orthogonalEdgeStyle;rounded=0;orthogonalLoop=1;jettySize=auto;html=1;entryX=0.5;entryY=0;entryDx=0;entryDy=0;" parent="1" source="o1MzAIX67n9RTOHfI_H--56" target="o1MzAIX67n9RTOHfI_H--66" edge="1">
          <mxGeometry relative="1" as="geometry" />
        </mxCell>
        <mxCell id="o1MzAIX67n9RTOHfI_H--56" value="&lt;span style=&quot;font-size: 10px;&quot;&gt;IC Number Exist&lt;/span&gt;" style="rhombus;whiteSpace=wrap;html=1;" parent="1" vertex="1">
          <mxGeometry x="552.5" y="285" width="65" height="60" as="geometry" />
        </mxCell>
        <mxCell id="o1MzAIX67n9RTOHfI_H--61" style="edgeStyle=orthogonalEdgeStyle;rounded=0;orthogonalLoop=1;jettySize=auto;html=1;entryX=-0.009;entryY=0.306;entryDx=0;entryDy=0;entryPerimeter=0;" parent="1" source="o1MzAIX67n9RTOHfI_H--60" edge="1" target="o1MzAIX67n9RTOHfI_H--4">
          <mxGeometry relative="1" as="geometry">
            <mxPoint x="210" y="50" as="targetPoint" />
            <Array as="points">
              <mxPoint x="430" y="100" />
              <mxPoint x="210" y="100" />
              <mxPoint x="210" y="-6" />
            </Array>
          </mxGeometry>
        </mxCell>
        <mxCell id="o1MzAIX67n9RTOHfI_H--60" value="&quot;Wrong IC or Password&quot;" style="shape=parallelogram;perimeter=parallelogramPerimeter;whiteSpace=wrap;html=1;fixedSize=1;" parent="1" vertex="1">
          <mxGeometry x="350" y="291.25" width="160" height="47.5" as="geometry" />
        </mxCell>
        <mxCell id="o1MzAIX67n9RTOHfI_H--64" value="&lt;span style=&quot;font-family: Helvetica; font-size: 11px; font-style: normal; font-variant-ligatures: normal; font-variant-caps: normal; font-weight: 400; letter-spacing: normal; orphans: 2; text-align: center; text-indent: 0px; text-transform: none; widows: 2; word-spacing: 0px; -webkit-text-stroke-width: 0px; white-space: nowrap; text-decoration-thickness: initial; text-decoration-style: initial; text-decoration-color: initial; float: none; display: inline !important;&quot;&gt;&lt;font style=&quot;color: light-dark(rgb(255, 51, 51), rgb(255, 0, 0));&quot;&gt;No&lt;/font&gt;&lt;/span&gt;" style="text;whiteSpace=wrap;html=1;" parent="1" vertex="1">
          <mxGeometry x="520" y="290" width="20" height="20" as="geometry" />
        </mxCell>
        <mxCell id="o1MzAIX67n9RTOHfI_H--69" style="edgeStyle=orthogonalEdgeStyle;rounded=0;orthogonalLoop=1;jettySize=auto;html=1;" parent="1" source="o1MzAIX67n9RTOHfI_H--66" edge="1">
          <mxGeometry relative="1" as="geometry">
            <mxPoint x="430" y="340" as="targetPoint" />
          </mxGeometry>
        </mxCell>
        <mxCell id="o1MzAIX67n9RTOHfI_H--77" style="edgeStyle=orthogonalEdgeStyle;rounded=0;orthogonalLoop=1;jettySize=auto;html=1;entryX=0.5;entryY=0;entryDx=0;entryDy=0;" parent="1" source="o1MzAIX67n9RTOHfI_H--66" target="o1MzAIX67n9RTOHfI_H--74" edge="1">
          <mxGeometry relative="1" as="geometry" />
        </mxCell>
        <mxCell id="o1MzAIX67n9RTOHfI_H--66" value="&lt;span style=&quot;font-size: 10px;&quot;&gt;Password Match&lt;/span&gt;" style="rhombus;whiteSpace=wrap;html=1;" parent="1" vertex="1">
          <mxGeometry x="552.5" y="380" width="65" height="60" as="geometry" />
        </mxCell>
        <mxCell id="o1MzAIX67n9RTOHfI_H--70" value="&lt;span style=&quot;font-family: Helvetica; font-size: 11px; font-style: normal; font-variant-ligatures: normal; font-variant-caps: normal; font-weight: 400; letter-spacing: normal; orphans: 2; text-align: center; text-indent: 0px; text-transform: none; widows: 2; word-spacing: 0px; -webkit-text-stroke-width: 0px; white-space: nowrap; text-decoration-thickness: initial; text-decoration-style: initial; text-decoration-color: initial; float: none; display: inline !important;&quot;&gt;&lt;font style=&quot;color: light-dark(rgb(255, 51, 51), rgb(255, 0, 0));&quot;&gt;No&lt;/font&gt;&lt;/span&gt;" style="text;whiteSpace=wrap;html=1;" parent="1" vertex="1">
          <mxGeometry x="480" y="380" width="20" height="20" as="geometry" />
        </mxCell>
        <mxCell id="o1MzAIX67n9RTOHfI_H--79" style="edgeStyle=orthogonalEdgeStyle;rounded=0;orthogonalLoop=1;jettySize=auto;html=1;entryX=0.5;entryY=0;entryDx=0;entryDy=0;" parent="1" source="o1MzAIX67n9RTOHfI_H--74" target="o1MzAIX67n9RTOHfI_H--78" edge="1">
          <mxGeometry relative="1" as="geometry" />
        </mxCell>
        <mxCell id="o1MzAIX67n9RTOHfI_H--74" value="&amp;nbsp;Get Income" style="rounded=0;whiteSpace=wrap;html=1;" parent="1" vertex="1">
          <mxGeometry x="530" y="470" width="110" height="35" as="geometry" />
        </mxCell>
        <mxCell id="o1MzAIX67n9RTOHfI_H--80" style="edgeStyle=orthogonalEdgeStyle;rounded=0;orthogonalLoop=1;jettySize=auto;html=1;" parent="1" source="o1MzAIX67n9RTOHfI_H--78" edge="1">
          <mxGeometry relative="1" as="geometry">
            <mxPoint x="585" y="590" as="targetPoint" />
          </mxGeometry>
        </mxCell>
        <mxCell id="o1MzAIX67n9RTOHfI_H--78" value="User&#39;s Income" style="shape=parallelogram;perimeter=parallelogramPerimeter;whiteSpace=wrap;html=1;fixedSize=1;" parent="1" vertex="1">
          <mxGeometry x="510" y="530" width="150" height="25" as="geometry" />
        </mxCell>
        <mxCell id="o1MzAIX67n9RTOHfI_H--82" style="edgeStyle=orthogonalEdgeStyle;rounded=0;orthogonalLoop=1;jettySize=auto;html=1;entryX=0;entryY=0.5;entryDx=0;entryDy=0;" parent="1" source="o1MzAIX67n9RTOHfI_H--81" target="o1MzAIX67n9RTOHfI_H--74" edge="1">
          <mxGeometry relative="1" as="geometry">
            <Array as="points">
              <mxPoint x="490" y="620" />
              <mxPoint x="490" y="488" />
            </Array>
          </mxGeometry>
        </mxCell>
        <mxCell id="o1MzAIX67n9RTOHfI_H--86" style="edgeStyle=orthogonalEdgeStyle;rounded=0;orthogonalLoop=1;jettySize=auto;html=1;entryX=0.5;entryY=0;entryDx=0;entryDy=0;" parent="1" source="o1MzAIX67n9RTOHfI_H--81" target="o1MzAIX67n9RTOHfI_H--85" edge="1">
          <mxGeometry relative="1" as="geometry" />
        </mxCell>
        <mxCell id="o1MzAIX67n9RTOHfI_H--81" value="&lt;span style=&quot;font-size: 10px;&quot;&gt;Positive Income&lt;/span&gt;" style="rhombus;whiteSpace=wrap;html=1;" parent="1" vertex="1">
          <mxGeometry x="552.5" y="590" width="65" height="60" as="geometry" />
        </mxCell>
        <mxCell id="o1MzAIX67n9RTOHfI_H--83" value="&lt;span style=&quot;font-family: Helvetica; font-size: 11px; font-style: normal; font-variant-ligatures: normal; font-variant-caps: normal; font-weight: 400; letter-spacing: normal; orphans: 2; text-align: center; text-indent: 0px; text-transform: none; widows: 2; word-spacing: 0px; -webkit-text-stroke-width: 0px; white-space: nowrap; text-decoration-thickness: initial; text-decoration-style: initial; text-decoration-color: initial; float: none; display: inline !important;&quot;&gt;&lt;font style=&quot;color: light-dark(rgb(255, 51, 51), rgb(255, 0, 0));&quot;&gt;No&lt;/font&gt;&lt;/span&gt;" style="text;whiteSpace=wrap;html=1;" parent="1" vertex="1">
          <mxGeometry x="470" y="540" width="20" height="20" as="geometry" />
        </mxCell>
        <mxCell id="o1MzAIX67n9RTOHfI_H--87" style="edgeStyle=orthogonalEdgeStyle;rounded=0;orthogonalLoop=1;jettySize=auto;html=1;" parent="1" source="o1MzAIX67n9RTOHfI_H--85" edge="1">
          <mxGeometry relative="1" as="geometry">
            <mxPoint x="585" y="740" as="targetPoint" />
          </mxGeometry>
        </mxCell>
        <mxCell id="o1MzAIX67n9RTOHfI_H--85" value="Calculate Tax Relief" style="rounded=0;whiteSpace=wrap;html=1;" parent="1" vertex="1">
          <mxGeometry x="530" y="680" width="110" height="35" as="geometry" />
        </mxCell>
        <mxCell id="o1MzAIX67n9RTOHfI_H--91" style="edgeStyle=orthogonalEdgeStyle;rounded=0;orthogonalLoop=1;jettySize=auto;html=1;entryX=0.5;entryY=0;entryDx=0;entryDy=0;" parent="1" source="o1MzAIX67n9RTOHfI_H--88" target="o1MzAIX67n9RTOHfI_H--89" edge="1">
          <mxGeometry relative="1" as="geometry" />
        </mxCell>
        <mxCell id="o1MzAIX67n9RTOHfI_H--88" value="&lt;font style=&quot;color: light-dark(rgb(0, 0, 0), rgb(236, 255, 0));&quot;&gt;Add Individual&amp;nbsp;&lt;/font&gt;&lt;div&gt;&lt;font style=&quot;color: light-dark(rgb(0, 0, 0), rgb(236, 255, 0));&quot;&gt;Tax Relief&lt;/font&gt;&lt;/div&gt;" style="rounded=0;whiteSpace=wrap;html=1;" parent="1" vertex="1">
          <mxGeometry x="530" y="740" width="110" height="35" as="geometry" />
        </mxCell>
        <mxCell id="o1MzAIX67n9RTOHfI_H--92" value="" style="edgeStyle=orthogonalEdgeStyle;rounded=0;orthogonalLoop=1;jettySize=auto;html=1;" parent="1" source="o1MzAIX67n9RTOHfI_H--89" target="o1MzAIX67n9RTOHfI_H--90" edge="1">
          <mxGeometry relative="1" as="geometry" />
        </mxCell>
        <mxCell id="o1MzAIX67n9RTOHfI_H--98" value="" style="edgeStyle=orthogonalEdgeStyle;rounded=0;orthogonalLoop=1;jettySize=auto;html=1;" parent="1" source="o1MzAIX67n9RTOHfI_H--89" target="o1MzAIX67n9RTOHfI_H--97" edge="1">
          <mxGeometry relative="1" as="geometry" />
        </mxCell>
        <mxCell id="o1MzAIX67n9RTOHfI_H--89" value="&lt;span style=&quot;font-size: 10px;&quot;&gt;&lt;font style=&quot;color: light-dark(rgb(0, 0, 0), rgb(236, 255, 0));&quot;&gt;Spouse&lt;/font&gt;&lt;/span&gt;&lt;div&gt;&lt;span style=&quot;font-size: 10px;&quot;&gt;&lt;font style=&quot;color: light-dark(rgb(0, 0, 0), rgb(236, 255, 0));&quot;&gt;Relief&lt;/font&gt;&lt;/span&gt;&lt;/div&gt;" style="rhombus;whiteSpace=wrap;html=1;" parent="1" vertex="1">
          <mxGeometry x="552.5" y="800" width="65" height="60" as="geometry" />
        </mxCell>
        <mxCell id="o1MzAIX67n9RTOHfI_H--95" value="" style="edgeStyle=orthogonalEdgeStyle;rounded=0;orthogonalLoop=1;jettySize=auto;html=1;" parent="1" source="o1MzAIX67n9RTOHfI_H--90" target="o1MzAIX67n9RTOHfI_H--94" edge="1">
          <mxGeometry relative="1" as="geometry" />
        </mxCell>
        <mxCell id="o1MzAIX67n9RTOHfI_H--101" style="edgeStyle=orthogonalEdgeStyle;rounded=0;orthogonalLoop=1;jettySize=auto;html=1;entryX=0;entryY=0.5;entryDx=0;entryDy=0;" parent="1" source="o1MzAIX67n9RTOHfI_H--90" target="o1MzAIX67n9RTOHfI_H--97" edge="1">
          <mxGeometry relative="1" as="geometry">
            <Array as="points">
              <mxPoint x="435" y="920" />
            </Array>
          </mxGeometry>
        </mxCell>
        <mxCell id="o1MzAIX67n9RTOHfI_H--90" value="&lt;span style=&quot;font-size: 10px;&quot;&gt;Income less than 4000&lt;/span&gt;" style="rhombus;whiteSpace=wrap;html=1;" parent="1" vertex="1">
          <mxGeometry x="370" y="797.5" width="130" height="65" as="geometry" />
        </mxCell>
        <mxCell id="o1MzAIX67n9RTOHfI_H--94" value="Add to Total Tax Relief" style="whiteSpace=wrap;html=1;" parent="1" vertex="1">
          <mxGeometry x="230" y="810" width="90" height="40" as="geometry" />
        </mxCell>
        <mxCell id="o1MzAIX67n9RTOHfI_H--107" value="" style="edgeStyle=orthogonalEdgeStyle;rounded=0;orthogonalLoop=1;jettySize=auto;html=1;entryX=0;entryY=0.5;entryDx=0;entryDy=0;" parent="1" source="o1MzAIX67n9RTOHfI_H--97" target="o1MzAIX67n9RTOHfI_H--108" edge="1">
          <mxGeometry relative="1" as="geometry">
            <mxPoint x="695" y="920" as="targetPoint" />
          </mxGeometry>
        </mxCell>
        <mxCell id="o1MzAIX67n9RTOHfI_H--97" value="&lt;font style=&quot;color: light-dark(rgb(0, 0, 0), rgb(236, 255, 0));&quot;&gt;Child Relief&lt;/font&gt;" style="whiteSpace=wrap;html=1;" parent="1" vertex="1">
          <mxGeometry x="540" y="900" width="90" height="40" as="geometry" />
        </mxCell>
        <mxCell id="o1MzAIX67n9RTOHfI_H--99" value="&lt;span style=&quot;font-family: Helvetica; font-size: 11px; font-style: normal; font-variant-ligatures: normal; font-variant-caps: normal; font-weight: 400; letter-spacing: normal; orphans: 2; text-align: center; text-indent: 0px; text-transform: none; widows: 2; word-spacing: 0px; -webkit-text-stroke-width: 0px; white-space: nowrap; text-decoration-thickness: initial; text-decoration-style: initial; text-decoration-color: initial; float: none; display: inline !important;&quot;&gt;&lt;font style=&quot;color: light-dark(rgb(255, 51, 51), rgb(255, 0, 0));&quot;&gt;No&lt;/font&gt;&lt;/span&gt;" style="text;whiteSpace=wrap;html=1;" parent="1" vertex="1">
          <mxGeometry x="590" y="860" width="20" as="geometry" />
        </mxCell>
        <mxCell id="o1MzAIX67n9RTOHfI_H--102" value="&lt;span style=&quot;font-family: Helvetica; font-size: 11px; font-style: normal; font-variant-ligatures: normal; font-variant-caps: normal; font-weight: 400; letter-spacing: normal; orphans: 2; text-align: center; text-indent: 0px; text-transform: none; widows: 2; word-spacing: 0px; -webkit-text-stroke-width: 0px; white-space: nowrap; text-decoration-thickness: initial; text-decoration-style: initial; text-decoration-color: initial; float: none; display: inline !important;&quot;&gt;&lt;font style=&quot;color: light-dark(rgb(255, 51, 51), rgb(255, 0, 0));&quot;&gt;No&lt;/font&gt;&lt;/span&gt;" style="text;whiteSpace=wrap;html=1;" parent="1" vertex="1">
          <mxGeometry x="470" y="896" width="20" height="20" as="geometry" />
        </mxCell>
        <mxCell id="o1MzAIX67n9RTOHfI_H--104" style="edgeStyle=orthogonalEdgeStyle;rounded=0;orthogonalLoop=1;jettySize=auto;html=1;exitX=0.5;exitY=1;exitDx=0;exitDy=0;entryX=-0.011;entryY=0.868;entryDx=0;entryDy=0;entryPerimeter=0;" parent="1" source="o1MzAIX67n9RTOHfI_H--94" target="o1MzAIX67n9RTOHfI_H--97" edge="1">
          <mxGeometry relative="1" as="geometry" />
        </mxCell>
        <mxCell id="o1MzAIX67n9RTOHfI_H--112" value="" style="edgeStyle=orthogonalEdgeStyle;rounded=0;orthogonalLoop=1;jettySize=auto;html=1;" parent="1" source="o1MzAIX67n9RTOHfI_H--108" target="o1MzAIX67n9RTOHfI_H--111" edge="1">
          <mxGeometry relative="1" as="geometry" />
        </mxCell>
        <mxCell id="o1MzAIX67n9RTOHfI_H--108" value="no. of child" style="shape=parallelogram;perimeter=parallelogramPerimeter;whiteSpace=wrap;html=1;fixedSize=1;" parent="1" vertex="1">
          <mxGeometry x="670" y="905" width="110" height="30" as="geometry" />
        </mxCell>
        <mxCell id="o1MzAIX67n9RTOHfI_H--114" value="" style="edgeStyle=orthogonalEdgeStyle;rounded=0;orthogonalLoop=1;jettySize=auto;html=1;" parent="1" source="o1MzAIX67n9RTOHfI_H--111" target="o1MzAIX67n9RTOHfI_H--113" edge="1">
          <mxGeometry relative="1" as="geometry" />
        </mxCell>
        <mxCell id="o1MzAIX67n9RTOHfI_H--119" value="" style="edgeStyle=orthogonalEdgeStyle;rounded=0;orthogonalLoop=1;jettySize=auto;html=1;" parent="1" source="o1MzAIX67n9RTOHfI_H--111" target="o1MzAIX67n9RTOHfI_H--118" edge="1">
          <mxGeometry relative="1" as="geometry" />
        </mxCell>
        <mxCell id="o1MzAIX67n9RTOHfI_H--111" value="&lt;span style=&quot;font-size: 10px;&quot;&gt;More than 0&lt;/span&gt;" style="rhombus;whiteSpace=wrap;html=1;" parent="1" vertex="1">
          <mxGeometry x="660" y="960" width="130" height="65" as="geometry" />
        </mxCell>
        <mxCell id="o1MzAIX67n9RTOHfI_H--116" value="" style="edgeStyle=orthogonalEdgeStyle;rounded=0;orthogonalLoop=1;jettySize=auto;html=1;" parent="1" source="o1MzAIX67n9RTOHfI_H--113" target="o1MzAIX67n9RTOHfI_H--115" edge="1">
          <mxGeometry relative="1" as="geometry" />
        </mxCell>
        <mxCell id="o1MzAIX67n9RTOHfI_H--113" value="Limit to 12" style="whiteSpace=wrap;html=1;" parent="1" vertex="1">
          <mxGeometry x="850" y="971.25" width="105" height="42.5" as="geometry" />
        </mxCell>
        <mxCell id="o1MzAIX67n9RTOHfI_H--121" style="edgeStyle=orthogonalEdgeStyle;rounded=0;orthogonalLoop=1;jettySize=auto;html=1;entryX=1;entryY=0.75;entryDx=0;entryDy=0;" parent="1" source="o1MzAIX67n9RTOHfI_H--115" target="o1MzAIX67n9RTOHfI_H--118" edge="1">
          <mxGeometry relative="1" as="geometry">
            <Array as="points">
              <mxPoint x="850" y="1070" />
              <mxPoint x="850" y="1040" />
              <mxPoint x="650" y="1040" />
              <mxPoint x="650" y="1003" />
            </Array>
          </mxGeometry>
        </mxCell>
        <mxCell id="o1MzAIX67n9RTOHfI_H--115" value="Add to Total Tax Relief" style="whiteSpace=wrap;html=1;" parent="1" vertex="1">
          <mxGeometry x="857.5" y="1050" width="90" height="40" as="geometry" />
        </mxCell>
        <mxCell id="o1MzAIX67n9RTOHfI_H--123" value="" style="edgeStyle=orthogonalEdgeStyle;rounded=0;orthogonalLoop=1;jettySize=auto;html=1;" parent="1" source="o1MzAIX67n9RTOHfI_H--118" target="o1MzAIX67n9RTOHfI_H--122" edge="1">
          <mxGeometry relative="1" as="geometry" />
        </mxCell>
        <mxCell id="o1MzAIX67n9RTOHfI_H--118" value="&lt;font style=&quot;color: light-dark(rgb(255, 255, 102), rgb(236, 255, 0));&quot;&gt;Medical Expenses&lt;/font&gt;" style="whiteSpace=wrap;html=1;" parent="1" vertex="1">
          <mxGeometry x="540" y="972.5" width="90" height="40" as="geometry" />
        </mxCell>
        <mxCell id="o1MzAIX67n9RTOHfI_H--120" value="&lt;span style=&quot;font-family: Helvetica; font-size: 11px; font-style: normal; font-variant-ligatures: normal; font-variant-caps: normal; font-weight: 400; letter-spacing: normal; orphans: 2; text-align: center; text-indent: 0px; text-transform: none; widows: 2; word-spacing: 0px; -webkit-text-stroke-width: 0px; white-space: nowrap; text-decoration-thickness: initial; text-decoration-style: initial; text-decoration-color: initial; float: none; display: inline !important;&quot;&gt;&lt;font style=&quot;color: light-dark(rgb(255, 51, 51), rgb(255, 0, 0));&quot;&gt;No&lt;/font&gt;&lt;/span&gt;" style="text;whiteSpace=wrap;html=1;" parent="1" vertex="1">
          <mxGeometry x="640" y="971.25" width="20" height="20" as="geometry" />
        </mxCell>
        <mxCell id="o1MzAIX67n9RTOHfI_H--126" value="" style="edgeStyle=orthogonalEdgeStyle;rounded=0;orthogonalLoop=1;jettySize=auto;html=1;" parent="1" source="o1MzAIX67n9RTOHfI_H--122" target="o1MzAIX67n9RTOHfI_H--125" edge="1">
          <mxGeometry relative="1" as="geometry" />
        </mxCell>
        <mxCell id="o1MzAIX67n9RTOHfI_H--122" value="amount of Medical Expenses" style="shape=parallelogram;perimeter=parallelogramPerimeter;whiteSpace=wrap;html=1;fixedSize=1;" parent="1" vertex="1">
          <mxGeometry x="350" y="978.75" width="140" height="27.5" as="geometry" />
        </mxCell>
        <mxCell id="o1MzAIX67n9RTOHfI_H--128" value="" style="edgeStyle=orthogonalEdgeStyle;rounded=0;orthogonalLoop=1;jettySize=auto;html=1;" parent="1" source="o1MzAIX67n9RTOHfI_H--125" target="o1MzAIX67n9RTOHfI_H--127" edge="1">
          <mxGeometry relative="1" as="geometry" />
        </mxCell>
        <mxCell id="o1MzAIX67n9RTOHfI_H--130" value="" style="edgeStyle=orthogonalEdgeStyle;rounded=0;orthogonalLoop=1;jettySize=auto;html=1;" parent="1" source="o1MzAIX67n9RTOHfI_H--125" target="o1MzAIX67n9RTOHfI_H--129" edge="1">
          <mxGeometry relative="1" as="geometry" />
        </mxCell>
        <mxCell id="o1MzAIX67n9RTOHfI_H--125" value="&lt;span style=&quot;font-size: 10px;&quot;&gt;More than 0&lt;/span&gt;" style="rhombus;whiteSpace=wrap;html=1;" parent="1" vertex="1">
          <mxGeometry x="355" y="1037.5" width="130" height="65" as="geometry" />
        </mxCell>
        <mxCell id="o1MzAIX67n9RTOHfI_H--137" value="" style="edgeStyle=orthogonalEdgeStyle;rounded=0;orthogonalLoop=1;jettySize=auto;html=1;" parent="1" source="o1MzAIX67n9RTOHfI_H--127" target="o1MzAIX67n9RTOHfI_H--136" edge="1">
          <mxGeometry relative="1" as="geometry" />
        </mxCell>
        <mxCell id="o1MzAIX67n9RTOHfI_H--127" value="&lt;font style=&quot;color: light-dark(rgb(255, 255, 0), rgb(236, 255, 0));&quot;&gt;Lifestyle Relief&lt;/font&gt;" style="whiteSpace=wrap;html=1;" parent="1" vertex="1">
          <mxGeometry x="540" y="1050" width="90" height="40" as="geometry" />
        </mxCell>
        <mxCell id="o1MzAIX67n9RTOHfI_H--132" value="" style="edgeStyle=orthogonalEdgeStyle;rounded=0;orthogonalLoop=1;jettySize=auto;html=1;" parent="1" source="o1MzAIX67n9RTOHfI_H--129" target="o1MzAIX67n9RTOHfI_H--131" edge="1">
          <mxGeometry relative="1" as="geometry" />
        </mxCell>
        <mxCell id="o1MzAIX67n9RTOHfI_H--129" value="Limit to 8000" style="whiteSpace=wrap;html=1;" parent="1" vertex="1">
          <mxGeometry x="210" y="1048.75" width="105" height="42.5" as="geometry" />
        </mxCell>
        <mxCell id="o1MzAIX67n9RTOHfI_H--133" style="edgeStyle=orthogonalEdgeStyle;rounded=0;orthogonalLoop=1;jettySize=auto;html=1;entryX=0;entryY=0.75;entryDx=0;entryDy=0;" parent="1" source="o1MzAIX67n9RTOHfI_H--131" target="o1MzAIX67n9RTOHfI_H--127" edge="1">
          <mxGeometry relative="1" as="geometry">
            <Array as="points">
              <mxPoint x="490" y="1130" />
              <mxPoint x="490" y="1080" />
            </Array>
          </mxGeometry>
        </mxCell>
        <mxCell id="o1MzAIX67n9RTOHfI_H--131" value="Add to Total Tax Relief" style="whiteSpace=wrap;html=1;" parent="1" vertex="1">
          <mxGeometry x="217.5" y="1120" width="90" height="40" as="geometry" />
        </mxCell>
        <mxCell id="o1MzAIX67n9RTOHfI_H--135" value="&lt;span style=&quot;font-family: Helvetica; font-size: 11px; font-style: normal; font-variant-ligatures: normal; font-variant-caps: normal; font-weight: 400; letter-spacing: normal; orphans: 2; text-align: center; text-indent: 0px; text-transform: none; widows: 2; word-spacing: 0px; -webkit-text-stroke-width: 0px; white-space: nowrap; text-decoration-thickness: initial; text-decoration-style: initial; text-decoration-color: initial; float: none; display: inline !important;&quot;&gt;&lt;font style=&quot;color: light-dark(rgb(255, 51, 51), rgb(255, 0, 0));&quot;&gt;No&lt;/font&gt;&lt;/span&gt;" style="text;whiteSpace=wrap;html=1;" parent="1" vertex="1">
          <mxGeometry x="500" y="1048.75" width="20" height="20" as="geometry" />
        </mxCell>
        <mxCell id="o1MzAIX67n9RTOHfI_H--139" value="" style="edgeStyle=orthogonalEdgeStyle;rounded=0;orthogonalLoop=1;jettySize=auto;html=1;" parent="1" source="o1MzAIX67n9RTOHfI_H--136" target="o1MzAIX67n9RTOHfI_H--138" edge="1">
          <mxGeometry relative="1" as="geometry" />
        </mxCell>
        <mxCell id="o1MzAIX67n9RTOHfI_H--136" value="amount of lifestyle relief" style="shape=parallelogram;perimeter=parallelogramPerimeter;whiteSpace=wrap;html=1;fixedSize=1;" parent="1" vertex="1">
          <mxGeometry x="655" y="1055" width="160" height="30" as="geometry" />
        </mxCell>
        <mxCell id="o1MzAIX67n9RTOHfI_H--141" value="" style="edgeStyle=orthogonalEdgeStyle;rounded=0;orthogonalLoop=1;jettySize=auto;html=1;" parent="1" source="o1MzAIX67n9RTOHfI_H--138" target="o1MzAIX67n9RTOHfI_H--140" edge="1">
          <mxGeometry relative="1" as="geometry" />
        </mxCell>
        <mxCell id="o1MzAIX67n9RTOHfI_H--164" value="" style="edgeStyle=orthogonalEdgeStyle;rounded=0;orthogonalLoop=1;jettySize=auto;html=1;" parent="1" source="o1MzAIX67n9RTOHfI_H--138" target="o1MzAIX67n9RTOHfI_H--142" edge="1">
          <mxGeometry relative="1" as="geometry">
            <Array as="points">
              <mxPoint x="670" y="1160" />
              <mxPoint x="670" y="1160" />
            </Array>
          </mxGeometry>
        </mxCell>
        <mxCell id="o1MzAIX67n9RTOHfI_H--138" value="&lt;span style=&quot;font-size: 10px;&quot;&gt;More than 0&lt;/span&gt;" style="rhombus;whiteSpace=wrap;html=1;" parent="1" vertex="1">
          <mxGeometry x="670" y="1130" width="130" height="65" as="geometry" />
        </mxCell>
        <mxCell id="o1MzAIX67n9RTOHfI_H--145" value="" style="edgeStyle=orthogonalEdgeStyle;rounded=0;orthogonalLoop=1;jettySize=auto;html=1;" parent="1" source="o1MzAIX67n9RTOHfI_H--140" target="o1MzAIX67n9RTOHfI_H--144" edge="1">
          <mxGeometry relative="1" as="geometry" />
        </mxCell>
        <mxCell id="o1MzAIX67n9RTOHfI_H--140" value="Limit to 2500" style="whiteSpace=wrap;html=1;" parent="1" vertex="1">
          <mxGeometry x="850" y="1131.25" width="105" height="42.5" as="geometry" />
        </mxCell>
        <mxCell id="o1MzAIX67n9RTOHfI_H--150" value="" style="edgeStyle=orthogonalEdgeStyle;rounded=0;orthogonalLoop=1;jettySize=auto;html=1;" parent="1" source="o1MzAIX67n9RTOHfI_H--142" target="o1MzAIX67n9RTOHfI_H--149" edge="1">
          <mxGeometry relative="1" as="geometry" />
        </mxCell>
        <mxCell id="o1MzAIX67n9RTOHfI_H--142" value="&lt;font style=&quot;color: light-dark(rgb(255, 255, 0), rgb(236, 255, 0));&quot;&gt;Education Fees&lt;/font&gt;" style="whiteSpace=wrap;html=1;" parent="1" vertex="1">
          <mxGeometry x="540" y="1143.75" width="90" height="40" as="geometry" />
        </mxCell>
        <mxCell id="o1MzAIX67n9RTOHfI_H--144" value="Add to Total Tax Relief" style="whiteSpace=wrap;html=1;" parent="1" vertex="1">
          <mxGeometry x="857.5" y="1210" width="90" height="40" as="geometry" />
        </mxCell>
        <mxCell id="o1MzAIX67n9RTOHfI_H--146" style="edgeStyle=orthogonalEdgeStyle;rounded=0;orthogonalLoop=1;jettySize=auto;html=1;entryX=1;entryY=0.656;entryDx=0;entryDy=0;entryPerimeter=0;" parent="1" source="o1MzAIX67n9RTOHfI_H--144" target="o1MzAIX67n9RTOHfI_H--142" edge="1">
          <mxGeometry relative="1" as="geometry">
            <Array as="points">
              <mxPoint x="840" y="1230" />
              <mxPoint x="840" y="1200" />
              <mxPoint x="660" y="1200" />
              <mxPoint x="660" y="1170" />
            </Array>
          </mxGeometry>
        </mxCell>
        <mxCell id="o1MzAIX67n9RTOHfI_H--147" value="&lt;span style=&quot;font-family: Helvetica; font-size: 11px; font-style: normal; font-variant-ligatures: normal; font-variant-caps: normal; font-weight: 400; letter-spacing: normal; orphans: 2; text-align: center; text-indent: 0px; text-transform: none; widows: 2; word-spacing: 0px; -webkit-text-stroke-width: 0px; white-space: nowrap; text-decoration-thickness: initial; text-decoration-style: initial; text-decoration-color: initial; float: none; display: inline !important;&quot;&gt;&lt;font style=&quot;color: light-dark(rgb(255, 51, 51), rgb(255, 0, 0));&quot;&gt;No&lt;/font&gt;&lt;/span&gt;" style="text;whiteSpace=wrap;html=1;" parent="1" vertex="1">
          <mxGeometry x="640" y="1130" width="20" height="20" as="geometry" />
        </mxCell>
        <mxCell id="o1MzAIX67n9RTOHfI_H--153" value="" style="edgeStyle=orthogonalEdgeStyle;rounded=0;orthogonalLoop=1;jettySize=auto;html=1;" parent="1" source="o1MzAIX67n9RTOHfI_H--149" target="o1MzAIX67n9RTOHfI_H--151" edge="1">
          <mxGeometry relative="1" as="geometry" />
        </mxCell>
        <mxCell id="o1MzAIX67n9RTOHfI_H--149" value="amount of &lt;br&gt;Education fees" style="shape=parallelogram;perimeter=parallelogramPerimeter;whiteSpace=wrap;html=1;fixedSize=1;" parent="1" vertex="1">
          <mxGeometry x="345" y="1140" width="145" height="47.5" as="geometry" />
        </mxCell>
        <mxCell id="o1MzAIX67n9RTOHfI_H--155" value="" style="edgeStyle=orthogonalEdgeStyle;rounded=0;orthogonalLoop=1;jettySize=auto;html=1;" parent="1" source="o1MzAIX67n9RTOHfI_H--151" target="o1MzAIX67n9RTOHfI_H--154" edge="1">
          <mxGeometry relative="1" as="geometry" />
        </mxCell>
        <mxCell id="o1MzAIX67n9RTOHfI_H--158" value="" style="edgeStyle=orthogonalEdgeStyle;rounded=0;orthogonalLoop=1;jettySize=auto;html=1;" parent="1" source="o1MzAIX67n9RTOHfI_H--151" target="o1MzAIX67n9RTOHfI_H--157" edge="1">
          <mxGeometry relative="1" as="geometry" />
        </mxCell>
        <mxCell id="o1MzAIX67n9RTOHfI_H--151" value="&lt;span style=&quot;font-size: 10px;&quot;&gt;More than 0&lt;/span&gt;" style="rhombus;whiteSpace=wrap;html=1;" parent="1" vertex="1">
          <mxGeometry x="352.5" y="1210" width="130" height="65" as="geometry" />
        </mxCell>
        <mxCell id="o1MzAIX67n9RTOHfI_H--167" value="" style="edgeStyle=orthogonalEdgeStyle;rounded=0;orthogonalLoop=1;jettySize=auto;html=1;" parent="1" source="o1MzAIX67n9RTOHfI_H--154" target="o1MzAIX67n9RTOHfI_H--166" edge="1">
          <mxGeometry relative="1" as="geometry" />
        </mxCell>
        <mxCell id="o1MzAIX67n9RTOHfI_H--154" value="&lt;font style=&quot;color: light-dark(rgb(254, 254, 0), rgb(236, 255, 0));&quot;&gt;Parental Care Expenses&lt;/font&gt;" style="whiteSpace=wrap;html=1;" parent="1" vertex="1">
          <mxGeometry x="540" y="1222.5" width="90" height="40" as="geometry" />
        </mxCell>
        <mxCell id="o1MzAIX67n9RTOHfI_H--156" value="&lt;span style=&quot;font-family: Helvetica; font-size: 11px; font-style: normal; font-variant-ligatures: normal; font-variant-caps: normal; font-weight: 400; letter-spacing: normal; orphans: 2; text-align: center; text-indent: 0px; text-transform: none; widows: 2; word-spacing: 0px; -webkit-text-stroke-width: 0px; white-space: nowrap; text-decoration-thickness: initial; text-decoration-style: initial; text-decoration-color: initial; float: none; display: inline !important;&quot;&gt;&lt;font style=&quot;color: light-dark(rgb(255, 51, 51), rgb(255, 0, 0));&quot;&gt;No&lt;/font&gt;&lt;/span&gt;" style="text;whiteSpace=wrap;html=1;" parent="1" vertex="1">
          <mxGeometry x="500" y="1220" width="20" height="20" as="geometry" />
        </mxCell>
        <mxCell id="o1MzAIX67n9RTOHfI_H--161" value="" style="edgeStyle=orthogonalEdgeStyle;rounded=0;orthogonalLoop=1;jettySize=auto;html=1;" parent="1" source="o1MzAIX67n9RTOHfI_H--157" target="o1MzAIX67n9RTOHfI_H--159" edge="1">
          <mxGeometry relative="1" as="geometry" />
        </mxCell>
        <mxCell id="o1MzAIX67n9RTOHfI_H--157" value="Limit to 7000" style="whiteSpace=wrap;html=1;" parent="1" vertex="1">
          <mxGeometry x="202.5" y="1221.25" width="105" height="42.5" as="geometry" />
        </mxCell>
        <mxCell id="o1MzAIX67n9RTOHfI_H--162" style="edgeStyle=orthogonalEdgeStyle;rounded=0;orthogonalLoop=1;jettySize=auto;html=1;entryX=0;entryY=0.75;entryDx=0;entryDy=0;" parent="1" source="o1MzAIX67n9RTOHfI_H--159" target="o1MzAIX67n9RTOHfI_H--154" edge="1">
          <mxGeometry relative="1" as="geometry">
            <Array as="points">
              <mxPoint x="490" y="1310" />
              <mxPoint x="490" y="1253" />
            </Array>
          </mxGeometry>
        </mxCell>
        <mxCell id="o1MzAIX67n9RTOHfI_H--159" value="Add to Total Tax Relief" style="whiteSpace=wrap;html=1;" parent="1" vertex="1">
          <mxGeometry x="210" y="1290" width="90" height="40" as="geometry" />
        </mxCell>
        <mxCell id="o1MzAIX67n9RTOHfI_H--169" value="" style="edgeStyle=orthogonalEdgeStyle;rounded=0;orthogonalLoop=1;jettySize=auto;html=1;" parent="1" source="o1MzAIX67n9RTOHfI_H--166" target="o1MzAIX67n9RTOHfI_H--168" edge="1">
          <mxGeometry relative="1" as="geometry" />
        </mxCell>
        <mxCell id="o1MzAIX67n9RTOHfI_H--166" value="amount of parental care expenses" style="shape=parallelogram;perimeter=parallelogramPerimeter;whiteSpace=wrap;html=1;fixedSize=1;" parent="1" vertex="1">
          <mxGeometry x="655" y="1227.5" width="160" height="30" as="geometry" />
        </mxCell>
        <mxCell id="o1MzAIX67n9RTOHfI_H--171" value="" style="edgeStyle=orthogonalEdgeStyle;rounded=0;orthogonalLoop=1;jettySize=auto;html=1;" parent="1" source="o1MzAIX67n9RTOHfI_H--168" target="o1MzAIX67n9RTOHfI_H--170" edge="1">
          <mxGeometry relative="1" as="geometry" />
        </mxCell>
        <mxCell id="o1MzAIX67n9RTOHfI_H--175" style="edgeStyle=orthogonalEdgeStyle;rounded=0;orthogonalLoop=1;jettySize=auto;html=1;entryX=0.5;entryY=0;entryDx=0;entryDy=0;" parent="1" source="o1MzAIX67n9RTOHfI_H--168" target="o1MzAIX67n9RTOHfI_H--174" edge="1">
          <mxGeometry relative="1" as="geometry" />
        </mxCell>
        <mxCell id="o1MzAIX67n9RTOHfI_H--168" value="&lt;span style=&quot;font-size: 10px;&quot;&gt;More than 0&lt;/span&gt;" style="rhombus;whiteSpace=wrap;html=1;" parent="1" vertex="1">
          <mxGeometry x="670" y="1290" width="130" height="65" as="geometry" />
        </mxCell>
        <mxCell id="o1MzAIX67n9RTOHfI_H--173" value="" style="edgeStyle=orthogonalEdgeStyle;rounded=0;orthogonalLoop=1;jettySize=auto;html=1;" parent="1" source="o1MzAIX67n9RTOHfI_H--170" target="o1MzAIX67n9RTOHfI_H--172" edge="1">
          <mxGeometry relative="1" as="geometry" />
        </mxCell>
        <mxCell id="o1MzAIX67n9RTOHfI_H--170" value="Limit to 5000" style="whiteSpace=wrap;html=1;" parent="1" vertex="1">
          <mxGeometry x="850" y="1301.25" width="105" height="42.5" as="geometry" />
        </mxCell>
        <mxCell id="o1MzAIX67n9RTOHfI_H--179" style="edgeStyle=orthogonalEdgeStyle;rounded=0;orthogonalLoop=1;jettySize=auto;html=1;" parent="1" source="o1MzAIX67n9RTOHfI_H--172" target="o1MzAIX67n9RTOHfI_H--174" edge="1">
          <mxGeometry relative="1" as="geometry" />
        </mxCell>
        <mxCell id="o1MzAIX67n9RTOHfI_H--172" value="Add to Total Tax Relief" style="whiteSpace=wrap;html=1;" parent="1" vertex="1">
          <mxGeometry x="857.5" y="1389.5" width="90" height="40" as="geometry" />
        </mxCell>
        <mxCell id="o1MzAIX67n9RTOHfI_H--181" value="" style="edgeStyle=orthogonalEdgeStyle;rounded=0;orthogonalLoop=1;jettySize=auto;html=1;" parent="1" source="o1MzAIX67n9RTOHfI_H--174" target="o1MzAIX67n9RTOHfI_H--180" edge="1">
          <mxGeometry relative="1" as="geometry" />
        </mxCell>
        <mxCell id="o1MzAIX67n9RTOHfI_H--204" value="" style="edgeStyle=orthogonalEdgeStyle;rounded=0;orthogonalLoop=1;jettySize=auto;html=1;" parent="1" source="o1MzAIX67n9RTOHfI_H--174" target="o1MzAIX67n9RTOHfI_H--203" edge="1">
          <mxGeometry relative="1" as="geometry" />
        </mxCell>
        <mxCell id="o1MzAIX67n9RTOHfI_H--174" value="Calculate Total Tax Relief" style="rounded=0;whiteSpace=wrap;html=1;" parent="1" vertex="1">
          <mxGeometry x="503" y="1381" width="152" height="55" as="geometry" />
        </mxCell>
        <mxCell id="o1MzAIX67n9RTOHfI_H--177" value="&lt;span style=&quot;font-family: Helvetica; font-size: 11px; font-style: normal; font-variant-ligatures: normal; font-variant-caps: normal; font-weight: 400; letter-spacing: normal; orphans: 2; text-align: center; text-indent: 0px; text-transform: none; widows: 2; word-spacing: 0px; -webkit-text-stroke-width: 0px; white-space: nowrap; text-decoration-thickness: initial; text-decoration-style: initial; text-decoration-color: initial; float: none; display: inline !important;&quot;&gt;&lt;font style=&quot;color: light-dark(rgb(255, 51, 51), rgb(255, 0, 0));&quot;&gt;No&lt;/font&gt;&lt;/span&gt;" style="text;whiteSpace=wrap;html=1;" parent="1" vertex="1">
          <mxGeometry x="620" y="1300" width="20" height="20" as="geometry" />
        </mxCell>
        <mxCell id="o1MzAIX67n9RTOHfI_H--180" value="Update Total Tax Relief to CSV" style="rounded=0;whiteSpace=wrap;html=1;" parent="1" vertex="1">
          <mxGeometry x="315" y="1382" width="152" height="55" as="geometry" />
        </mxCell>
        <mxCell id="o1MzAIX67n9RTOHfI_H--189" value="" style="edgeStyle=orthogonalEdgeStyle;rounded=0;orthogonalLoop=1;jettySize=auto;html=1;" parent="1" source="o1MzAIX67n9RTOHfI_H--185" target="o1MzAIX67n9RTOHfI_H--188" edge="1">
          <mxGeometry relative="1" as="geometry" />
        </mxCell>
        <mxCell id="o1MzAIX67n9RTOHfI_H--210" value="" style="edgeStyle=orthogonalEdgeStyle;rounded=0;orthogonalLoop=1;jettySize=auto;html=1;" parent="1" source="o1MzAIX67n9RTOHfI_H--185" target="o1MzAIX67n9RTOHfI_H--209" edge="1">
          <mxGeometry relative="1" as="geometry" />
        </mxCell>
        <mxCell id="o1MzAIX67n9RTOHfI_H--185" value="Calculate Tax Payable" style="rounded=0;whiteSpace=wrap;html=1;" parent="1" vertex="1">
          <mxGeometry x="503" y="1540" width="152" height="55" as="geometry" />
        </mxCell>
        <mxCell id="o1MzAIX67n9RTOHfI_H--188" value="Update Tax Payable to CSV" style="rounded=0;whiteSpace=wrap;html=1;" parent="1" vertex="1">
          <mxGeometry x="307.5" y="1540" width="152" height="55" as="geometry" />
        </mxCell>
        <mxCell id="o1MzAIX67n9RTOHfI_H--192" style="edgeStyle=orthogonalEdgeStyle;rounded=0;orthogonalLoop=1;jettySize=auto;html=1;entryX=0;entryY=0.75;entryDx=0;entryDy=0;" parent="1" source="o1MzAIX67n9RTOHfI_H--190" target="o1MzAIX67n9RTOHfI_H--4" edge="1">
          <mxGeometry relative="1" as="geometry">
            <Array as="points">
              <mxPoint x="-10" y="1770" />
              <mxPoint x="-10" y="28" />
            </Array>
          </mxGeometry>
        </mxCell>
        <mxCell id="o1MzAIX67n9RTOHfI_H--190" value="&quot;Total Tax Payable&quot;" style="shape=parallelogram;perimeter=parallelogramPerimeter;whiteSpace=wrap;html=1;fixedSize=1;" parent="1" vertex="1">
          <mxGeometry x="500" y="1750" width="160" height="30" as="geometry" />
        </mxCell>
        <mxCell id="69m1BiPVyUGvL0sLN5Fm-3" value="" style="edgeStyle=orthogonalEdgeStyle;rounded=0;orthogonalLoop=1;jettySize=auto;html=1;" edge="1" parent="1" source="o1MzAIX67n9RTOHfI_H--194" target="69m1BiPVyUGvL0sLN5Fm-1">
          <mxGeometry relative="1" as="geometry" />
        </mxCell>
        <mxCell id="o1MzAIX67n9RTOHfI_H--194" value="&lt;font style=&quot;background-color: light-dark(#ffffff, var(--ge-dark-color, #121212)); color: light-dark(rgb(0, 0, 0), rgb(0, 255, 241));&quot;&gt;View Records&lt;/font&gt;" style="rounded=0;whiteSpace=wrap;html=1;" parent="1" vertex="1">
          <mxGeometry x="720" y="98.75" width="110" height="35" as="geometry" />
        </mxCell>
        <mxCell id="o1MzAIX67n9RTOHfI_H--200" value="" style="edgeStyle=orthogonalEdgeStyle;rounded=0;orthogonalLoop=1;jettySize=auto;html=1;" parent="1" source="o1MzAIX67n9RTOHfI_H--197" target="o1MzAIX67n9RTOHfI_H--199" edge="1">
          <mxGeometry relative="1" as="geometry" />
        </mxCell>
        <mxCell id="o1MzAIX67n9RTOHfI_H--197" value="Read user&#39;s IC Number from CSV" style="rounded=0;whiteSpace=wrap;html=1;" parent="1" vertex="1">
          <mxGeometry x="720" y="330" width="110" height="35" as="geometry" />
        </mxCell>
        <mxCell id="o1MzAIX67n9RTOHfI_H--201" style="edgeStyle=orthogonalEdgeStyle;rounded=0;orthogonalLoop=1;jettySize=auto;html=1;entryX=1;entryY=0.25;entryDx=0;entryDy=0;" parent="1" source="o1MzAIX67n9RTOHfI_H--199" target="o1MzAIX67n9RTOHfI_H--4" edge="1">
          <mxGeometry relative="1" as="geometry">
            <Array as="points">
              <mxPoint x="840" y="-11" />
            </Array>
          </mxGeometry>
        </mxCell>
        <mxCell id="o1MzAIX67n9RTOHfI_H--199" value="Display User&#39;s &quot;IC Number, Income, Tax Relief, Tax Payable&quot; from CSV" style="shape=parallelogram;perimeter=parallelogramPerimeter;whiteSpace=wrap;html=1;fixedSize=1;" parent="1" vertex="1">
          <mxGeometry x="680" y="412.5" width="190" height="70" as="geometry" />
        </mxCell>
        <mxCell id="o1MzAIX67n9RTOHfI_H--208" style="edgeStyle=orthogonalEdgeStyle;rounded=0;orthogonalLoop=1;jettySize=auto;html=1;entryX=0.5;entryY=0;entryDx=0;entryDy=0;" parent="1" source="o1MzAIX67n9RTOHfI_H--203" target="o1MzAIX67n9RTOHfI_H--185" edge="1">
          <mxGeometry relative="1" as="geometry" />
        </mxCell>
        <mxCell id="o1MzAIX67n9RTOHfI_H--203" value="Calculate Chargeable Income" style="rounded=0;whiteSpace=wrap;html=1;" parent="1" vertex="1">
          <mxGeometry x="503" y="1460" width="152" height="55" as="geometry" />
        </mxCell>
        <mxCell id="o1MzAIX67n9RTOHfI_H--213" value="" style="edgeStyle=orthogonalEdgeStyle;rounded=0;orthogonalLoop=1;jettySize=auto;html=1;" parent="1" source="o1MzAIX67n9RTOHfI_H--209" target="o1MzAIX67n9RTOHfI_H--211" edge="1">
          <mxGeometry relative="1" as="geometry" />
        </mxCell>
        <mxCell id="o1MzAIX67n9RTOHfI_H--209" value="&quot;Total Relief&quot;" style="shape=parallelogram;perimeter=parallelogramPerimeter;whiteSpace=wrap;html=1;fixedSize=1;" parent="1" vertex="1">
          <mxGeometry x="499" y="1620" width="160" height="30" as="geometry" />
        </mxCell>
        <mxCell id="o1MzAIX67n9RTOHfI_H--214" value="" style="edgeStyle=orthogonalEdgeStyle;rounded=0;orthogonalLoop=1;jettySize=auto;html=1;" parent="1" source="o1MzAIX67n9RTOHfI_H--211" target="o1MzAIX67n9RTOHfI_H--190" edge="1">
          <mxGeometry relative="1" as="geometry" />
        </mxCell>
        <mxCell id="o1MzAIX67n9RTOHfI_H--211" value="&quot;Chargeable Income&quot;" style="shape=parallelogram;perimeter=parallelogramPerimeter;whiteSpace=wrap;html=1;fixedSize=1;" parent="1" vertex="1">
          <mxGeometry x="499" y="1690" width="160" height="30" as="geometry" />
        </mxCell>
        <mxCell id="o1MzAIX67n9RTOHfI_H--219" value="" style="edgeStyle=orthogonalEdgeStyle;rounded=0;orthogonalLoop=1;jettySize=auto;html=1;" parent="1" source="o1MzAIX67n9RTOHfI_H--216" target="o1MzAIX67n9RTOHfI_H--218" edge="1">
          <mxGeometry relative="1" as="geometry" />
        </mxCell>
        <mxCell id="o1MzAIX67n9RTOHfI_H--216" value="Display &quot;Thanks for using tax calculator&quot;" style="shape=parallelogram;perimeter=parallelogramPerimeter;whiteSpace=wrap;html=1;fixedSize=1;" parent="1" vertex="1">
          <mxGeometry x="845" y="81.88" width="135" height="96.25" as="geometry" />
        </mxCell>
        <mxCell id="o1MzAIX67n9RTOHfI_H--218" value="&lt;font style=&quot;font-size: 21px;&quot;&gt;END&lt;/font&gt;" style="ellipse;whiteSpace=wrap;html=1;" parent="1" vertex="1">
          <mxGeometry x="852.5" y="257.5" width="120" height="122.5" as="geometry" />
        </mxCell>
        <mxCell id="o1MzAIX67n9RTOHfI_H--224" value="&lt;div style=&quot;text-align: center;&quot;&gt;&lt;span style=&quot;background-color: transparent; font-size: 11px; text-wrap-mode: nowrap;&quot;&gt;&lt;font style=&quot;color: light-dark(rgb(255, 0, 0), rgb(3, 255, 0));&quot;&gt;Yes&lt;/font&gt;&lt;/span&gt;&lt;/div&gt;" style="text;whiteSpace=wrap;html=1;" parent="1" vertex="1">
          <mxGeometry x="90" y="247.5" width="20" height="20" as="geometry" />
        </mxCell>
        <mxCell id="o1MzAIX67n9RTOHfI_H--225" value="&lt;div style=&quot;text-align: center;&quot;&gt;&lt;span style=&quot;background-color: transparent; font-size: 11px; text-wrap-mode: nowrap;&quot;&gt;&lt;font style=&quot;color: light-dark(rgb(255, 0, 0), rgb(3, 255, 0));&quot;&gt;Yes&lt;/font&gt;&lt;/span&gt;&lt;/div&gt;" style="text;whiteSpace=wrap;html=1;" parent="1" vertex="1">
          <mxGeometry x="20" y="390" width="20" height="20" as="geometry" />
        </mxCell>
        <mxCell id="o1MzAIX67n9RTOHfI_H--226" value="&lt;div style=&quot;text-align: center;&quot;&gt;&lt;span style=&quot;background-color: transparent; font-size: 11px; text-wrap-mode: nowrap;&quot;&gt;&lt;font style=&quot;color: light-dark(rgb(255, 0, 0), rgb(3, 255, 0));&quot;&gt;Yes&lt;/font&gt;&lt;/span&gt;&lt;/div&gt;" style="text;whiteSpace=wrap;html=1;" parent="1" vertex="1">
          <mxGeometry x="590" y="345" width="20" height="20" as="geometry" />
        </mxCell>
        <mxCell id="o1MzAIX67n9RTOHfI_H--227" value="&lt;div style=&quot;text-align: center;&quot;&gt;&lt;span style=&quot;background-color: transparent; font-size: 11px; text-wrap-mode: nowrap;&quot;&gt;&lt;font style=&quot;color: light-dark(rgb(255, 0, 0), rgb(3, 255, 0));&quot;&gt;Yes&lt;/font&gt;&lt;/span&gt;&lt;/div&gt;" style="text;whiteSpace=wrap;html=1;" parent="1" vertex="1">
          <mxGeometry x="587.5" y="437.5" width="20" height="20" as="geometry" />
        </mxCell>
        <mxCell id="o1MzAIX67n9RTOHfI_H--228" value="&lt;div style=&quot;text-align: center;&quot;&gt;&lt;span style=&quot;background-color: transparent; font-size: 11px; text-wrap-mode: nowrap;&quot;&gt;&lt;font style=&quot;color: light-dark(rgb(255, 0, 0), rgb(3, 255, 0));&quot;&gt;Yes&lt;/font&gt;&lt;/span&gt;&lt;/div&gt;" style="text;whiteSpace=wrap;html=1;" parent="1" vertex="1">
          <mxGeometry x="345" y="806" width="20" height="20" as="geometry" />
        </mxCell>
        <mxCell id="o1MzAIX67n9RTOHfI_H--229" value="&lt;div style=&quot;text-align: center;&quot;&gt;&lt;span style=&quot;background-color: transparent; font-size: 11px; text-wrap-mode: nowrap;&quot;&gt;&lt;font style=&quot;color: light-dark(rgb(255, 0, 0), rgb(3, 255, 0));&quot;&gt;Yes&lt;/font&gt;&lt;/span&gt;&lt;/div&gt;" style="text;whiteSpace=wrap;html=1;" parent="1" vertex="1">
          <mxGeometry x="520" y="806" width="20" height="20" as="geometry" />
        </mxCell>
        <mxCell id="o1MzAIX67n9RTOHfI_H--230" value="&lt;div style=&quot;text-align: center;&quot;&gt;&lt;span style=&quot;background-color: transparent; font-size: 11px; text-wrap-mode: nowrap;&quot;&gt;&lt;font style=&quot;color: light-dark(rgb(255, 0, 0), rgb(3, 255, 0));&quot;&gt;Yes&lt;/font&gt;&lt;/span&gt;&lt;/div&gt;" style="text;whiteSpace=wrap;html=1;" parent="1" vertex="1">
          <mxGeometry x="800" y="971.25" width="20" height="20" as="geometry" />
        </mxCell>
        <mxCell id="o1MzAIX67n9RTOHfI_H--231" value="&lt;div style=&quot;text-align: center;&quot;&gt;&lt;span style=&quot;background-color: transparent; font-size: 11px; text-wrap-mode: nowrap;&quot;&gt;&lt;font style=&quot;color: light-dark(rgb(255, 0, 0), rgb(3, 255, 0));&quot;&gt;Yes&lt;/font&gt;&lt;/span&gt;&lt;/div&gt;" style="text;whiteSpace=wrap;html=1;" parent="1" vertex="1">
          <mxGeometry x="325" y="1048.75" width="20" height="20" as="geometry" />
        </mxCell>
        <mxCell id="o1MzAIX67n9RTOHfI_H--232" value="&lt;div style=&quot;text-align: center;&quot;&gt;&lt;span style=&quot;background-color: transparent; font-size: 11px; text-wrap-mode: nowrap;&quot;&gt;&lt;font style=&quot;color: light-dark(rgb(255, 0, 0), rgb(3, 255, 0));&quot;&gt;Yes&lt;/font&gt;&lt;/span&gt;&lt;/div&gt;" style="text;whiteSpace=wrap;html=1;" parent="1" vertex="1">
          <mxGeometry x="325" y="1220" width="20" height="20" as="geometry" />
        </mxCell>
        <mxCell id="o1MzAIX67n9RTOHfI_H--233" value="&lt;div style=&quot;text-align: center;&quot;&gt;&lt;span style=&quot;background-color: transparent; font-size: 11px; text-wrap-mode: nowrap;&quot;&gt;&lt;font style=&quot;color: light-dark(rgb(255, 0, 0), rgb(3, 255, 0));&quot;&gt;Yes&lt;/font&gt;&lt;/span&gt;&lt;/div&gt;" style="text;whiteSpace=wrap;html=1;" parent="1" vertex="1">
          <mxGeometry x="810" y="1130" width="20" height="20" as="geometry" />
        </mxCell>
        <mxCell id="o1MzAIX67n9RTOHfI_H--235" value="&lt;div style=&quot;text-align: center;&quot;&gt;&lt;span style=&quot;background-color: transparent; font-size: 11px; text-wrap-mode: nowrap;&quot;&gt;&lt;font style=&quot;color: light-dark(rgb(255, 0, 0), rgb(3, 255, 0));&quot;&gt;Yes&lt;/font&gt;&lt;/span&gt;&lt;/div&gt;" style="text;whiteSpace=wrap;html=1;" parent="1" vertex="1">
          <mxGeometry x="810" y="1301.25" width="20" height="20" as="geometry" />
        </mxCell>
        <mxCell id="o1MzAIX67n9RTOHfI_H--236" value="&lt;span style=&quot;font-family: Helvetica; font-size: 11px; font-style: normal; font-variant-ligatures: normal; font-variant-caps: normal; font-weight: 400; letter-spacing: normal; orphans: 2; text-align: center; text-indent: 0px; text-transform: none; widows: 2; word-spacing: 0px; -webkit-text-stroke-width: 0px; white-space: nowrap; text-decoration-thickness: initial; text-decoration-style: initial; text-decoration-color: initial; float: none; display: inline !important;&quot;&gt;&lt;font style=&quot;color: light-dark(rgb(255, 51, 51), rgb(255, 0, 0));&quot;&gt;No&lt;/font&gt;&lt;/span&gt;" style="text;whiteSpace=wrap;html=1;" parent="1" vertex="1">
          <mxGeometry x="30" y="300" width="20" height="20" as="geometry" />
        </mxCell>
        <mxCell id="o1MzAIX67n9RTOHfI_H--237" value="&lt;span style=&quot;font-family: Helvetica; font-size: 11px; font-style: normal; font-variant-ligatures: normal; font-variant-caps: normal; font-weight: 400; letter-spacing: normal; orphans: 2; text-align: center; text-indent: 0px; text-transform: none; widows: 2; word-spacing: 0px; -webkit-text-stroke-width: 0px; white-space: nowrap; text-decoration-thickness: initial; text-decoration-style: initial; text-decoration-color: initial; float: none; display: inline !important;&quot;&gt;&lt;font style=&quot;color: light-dark(rgb(255, 51, 51), rgb(255, 0, 0));&quot;&gt;No&lt;/font&gt;&lt;/span&gt;" style="text;whiteSpace=wrap;html=1;" parent="1" vertex="1">
          <mxGeometry x="85" y="318.75" width="20" height="20" as="geometry" />
        </mxCell>
        <mxCell id="69m1BiPVyUGvL0sLN5Fm-4" value="" style="edgeStyle=orthogonalEdgeStyle;rounded=0;orthogonalLoop=1;jettySize=auto;html=1;" edge="1" parent="1" source="69m1BiPVyUGvL0sLN5Fm-1" target="o1MzAIX67n9RTOHfI_H--197">
          <mxGeometry relative="1" as="geometry" />
        </mxCell>
        <mxCell id="69m1BiPVyUGvL0sLN5Fm-1" value="&lt;span style=&quot;font-size: 10px;&quot;&gt;User Logged in&lt;/span&gt;" style="rhombus;whiteSpace=wrap;html=1;" vertex="1" parent="1">
          <mxGeometry x="715" y="210" width="120" height="60" as="geometry" />
        </mxCell>
        <mxCell id="69m1BiPVyUGvL0sLN5Fm-6" value="&lt;span style=&quot;font-family: Helvetica; font-size: 11px; font-style: normal; font-variant-ligatures: normal; font-variant-caps: normal; font-weight: 400; letter-spacing: normal; orphans: 2; text-align: center; text-indent: 0px; text-transform: none; widows: 2; word-spacing: 0px; -webkit-text-stroke-width: 0px; white-space: nowrap; text-decoration-thickness: initial; text-decoration-style: initial; text-decoration-color: initial; float: none; display: inline !important;&quot;&gt;&lt;font style=&quot;color: light-dark(rgb(255, 51, 51), rgb(255, 0, 0));&quot;&gt;No&lt;/font&gt;&lt;/span&gt;" style="text;whiteSpace=wrap;html=1;" vertex="1" parent="1">
          <mxGeometry x="695" y="160" width="20" height="20" as="geometry" />
        </mxCell>
        <mxCell id="69m1BiPVyUGvL0sLN5Fm-7" value="&lt;div style=&quot;text-align: center;&quot;&gt;&lt;span style=&quot;background-color: transparent; font-size: 11px; text-wrap-mode: nowrap;&quot;&gt;&lt;font style=&quot;color: light-dark(rgb(255, 0, 0), rgb(3, 255, 0));&quot;&gt;Yes&lt;/font&gt;&lt;/span&gt;&lt;/div&gt;" style="text;whiteSpace=wrap;html=1;" vertex="1" parent="1">
          <mxGeometry x="750" y="280" width="20" height="20" as="geometry" />
        </mxCell>
        <mxCell id="69m1BiPVyUGvL0sLN5Fm-9" value="&quot;log in to view&quot;" style="shape=parallelogram;perimeter=parallelogramPerimeter;whiteSpace=wrap;html=1;fixedSize=1;" vertex="1" parent="1">
          <mxGeometry x="587.5" y="60" width="150" height="25" as="geometry" />
        </mxCell>
        <mxCell id="69m1BiPVyUGvL0sLN5Fm-12" style="edgeStyle=orthogonalEdgeStyle;rounded=0;orthogonalLoop=1;jettySize=auto;html=1;entryX=0.673;entryY=0.948;entryDx=0;entryDy=0;entryPerimeter=0;" edge="1" parent="1" source="69m1BiPVyUGvL0sLN5Fm-1" target="69m1BiPVyUGvL0sLN5Fm-9">
          <mxGeometry relative="1" as="geometry">
            <Array as="points">
              <mxPoint x="688" y="240" />
              <mxPoint x="688" y="148" />
              <mxPoint x="689" y="148" />
            </Array>
          </mxGeometry>
        </mxCell>
        <mxCell id="69m1BiPVyUGvL0sLN5Fm-13" style="edgeStyle=orthogonalEdgeStyle;rounded=0;orthogonalLoop=1;jettySize=auto;html=1;entryX=1;entryY=0.616;entryDx=0;entryDy=0;entryPerimeter=0;" edge="1" parent="1" source="69m1BiPVyUGvL0sLN5Fm-9" target="o1MzAIX67n9RTOHfI_H--4">
          <mxGeometry relative="1" as="geometry" />
        </mxCell>
        <mxCell id="69m1BiPVyUGvL0sLN5Fm-14" value="CSV" style="shape=cylinder3;whiteSpace=wrap;html=1;boundedLbl=1;backgroundOutline=1;size=15;" vertex="1" parent="1">
          <mxGeometry x="10" y="940" width="180" height="190" as="geometry" />
        </mxCell>
        <mxCell id="69m1BiPVyUGvL0sLN5Fm-16" style="edgeStyle=orthogonalEdgeStyle;rounded=0;orthogonalLoop=1;jettySize=auto;html=1;entryX=0.145;entryY=1;entryDx=0;entryDy=-4.35;entryPerimeter=0;" edge="1" parent="1" source="o1MzAIX67n9RTOHfI_H--188" target="69m1BiPVyUGvL0sLN5Fm-14">
          <mxGeometry relative="1" as="geometry" />
        </mxCell>
        <mxCell id="69m1BiPVyUGvL0sLN5Fm-17" style="edgeStyle=orthogonalEdgeStyle;rounded=0;orthogonalLoop=1;jettySize=auto;html=1;entryX=0.333;entryY=1;entryDx=0;entryDy=0;entryPerimeter=0;" edge="1" parent="1" source="o1MzAIX67n9RTOHfI_H--180" target="69m1BiPVyUGvL0sLN5Fm-14">
          <mxGeometry relative="1" as="geometry" />
        </mxCell>
        <mxCell id="69m1BiPVyUGvL0sLN5Fm-19" value="Update Income to CSV" style="rounded=0;whiteSpace=wrap;html=1;" vertex="1" parent="1">
          <mxGeometry x="259" y="565" width="152" height="55" as="geometry" />
        </mxCell>
        <mxCell id="69m1BiPVyUGvL0sLN5Fm-20" style="edgeStyle=orthogonalEdgeStyle;rounded=0;orthogonalLoop=1;jettySize=auto;html=1;entryX=0.438;entryY=0.001;entryDx=0;entryDy=0;entryPerimeter=0;" edge="1" parent="1" source="o1MzAIX67n9RTOHfI_H--78" target="69m1BiPVyUGvL0sLN5Fm-19">
          <mxGeometry relative="1" as="geometry" />
        </mxCell>
        <mxCell id="69m1BiPVyUGvL0sLN5Fm-21" style="edgeStyle=orthogonalEdgeStyle;rounded=0;orthogonalLoop=1;jettySize=auto;html=1;entryX=0.701;entryY=0.006;entryDx=0;entryDy=0;entryPerimeter=0;" edge="1" parent="1" source="69m1BiPVyUGvL0sLN5Fm-19" target="69m1BiPVyUGvL0sLN5Fm-14">
          <mxGeometry relative="1" as="geometry" />
        </mxCell>
      </root>
    </mxGraphModel>
  </diagram>
</mxfile>
